<?xml version="1.0" encoding="UTF-8"?>
<!DOCTYPE svg PUBLIC "-//W3C//DTD SVG 1.1//EN" "http://www.w3.org/Graphics/SVG/1.1/DTD/svg11.dtd">
<svg xmlns="http://www.w3.org/2000/svg" version="1.1" width="419px" height="68px" style="shape-rendering:geometricPrecision; text-rendering:geometricPrecision; image-rendering:optimizeQuality; fill-rule:evenodd; clip-rule:evenodd" xmlns:xlink="http://www.w3.org/1999/xlink">
<g><path style="opacity:0.991" fill="#1754b4" d="M 65.5,34.5 C 57.9711,36.9281 50.6378,39.9281 43.5,43.5C 31.3841,38.5373 19.3841,33.3706 7.5,28C 5.02054,27.1214 3.02054,25.6214 1.5,23.5C 15.1994,16.7552 29.0328,10.0886 43,3.5C 53.0288,8.39512 63.1955,12.8951 73.5,17C 77.7958,18.815 81.7958,21.1483 85.5,24C 78.6141,27.2743 71.9474,30.7743 65.5,34.5 Z"/></g>
<g><path style="opacity:0.972" fill="#000000" d="M 290.5,15.5 C 293.833,15.5 297.167,15.5 300.5,15.5C 300.5,31.1667 300.5,46.8333 300.5,62.5C 297.167,62.5 293.833,62.5 290.5,62.5C 290.5,46.8333 290.5,31.1667 290.5,15.5 Z"/></g>
<g><path style="opacity:0.905" fill="#000000" d="M 363.5,15.5 C 367.167,15.5 370.833,15.5 374.5,15.5C 374.5,31.1667 374.5,46.8333 374.5,62.5C 370.327,63.0436 366.494,62.377 363,60.5C 362.097,61.7014 360.931,62.5348 359.5,63C 350.157,65.7467 343.991,62.58 341,53.5C 340.016,47.2954 340.683,41.2954 343,35.5C 348.616,29.1671 355.282,27.8337 363,31.5C 363.499,26.1771 363.666,20.8437 363.5,15.5 Z M 355.5,37.5 C 358.652,36.9586 361.152,37.9586 363,40.5C 363.996,45.2288 363.496,49.7288 361.5,54C 357.454,56.3637 354.287,55.5304 352,51.5C 350.607,46.0511 351.774,41.3845 355.5,37.5 Z"/></g>
<g><path style="opacity:0.924" fill="#000000" d="M 95.5,17.5 C 100.099,17.2 104.599,17.5333 109,18.5C 113.871,32.9477 119.038,47.281 124.5,61.5C 120.5,62.8333 116.5,62.8333 112.5,61.5C 111.5,58.8333 110.5,56.1667 109.5,53.5C 104.533,52.3377 99.533,52.1711 94.5,53C 93.2728,55.7359 92.2728,58.5692 91.5,61.5C 87.5,62.8333 83.5,62.8333 79.5,61.5C 85.0373,46.8863 90.3707,32.2196 95.5,17.5 Z M 101.5,28.5 C 103.537,33.6166 105.204,38.9499 106.5,44.5C 103.15,44.665 99.8168,44.4983 96.5,44C 98.5515,38.962 100.218,33.7953 101.5,28.5 Z"/></g>
<g><path style="opacity:0.944" fill="#000000" d="M 309.5,17.5 C 318.167,17.5 326.833,17.5 335.5,17.5C 335.5,20.5 335.5,23.5 335.5,26.5C 330.5,26.5 325.5,26.5 320.5,26.5C 320.5,29.5 320.5,32.5 320.5,35.5C 325.167,35.5 329.833,35.5 334.5,35.5C 334.5,38.5 334.5,41.5 334.5,44.5C 329.833,44.5 325.167,44.5 320.5,44.5C 320.5,47.5 320.5,50.5 320.5,53.5C 325.833,53.5 331.167,53.5 336.5,53.5C 336.5,56.5 336.5,59.5 336.5,62.5C 327.5,62.5 318.5,62.5 309.5,62.5C 309.5,47.5 309.5,32.5 309.5,17.5 Z"/></g>
<g><path style="opacity:0.945" fill="#000000" d="M 142.5,29.5 C 144.833,29.5 147.167,29.5 149.5,29.5C 149.5,32.8333 149.5,36.1667 149.5,39.5C 145.615,38.0173 142.448,39.0173 140,42.5C 138.671,49.092 138.171,55.7586 138.5,62.5C 135.167,62.5 131.833,62.5 128.5,62.5C 128.5,51.8333 128.5,41.1667 128.5,30.5C 131.833,30.5 135.167,30.5 138.5,30.5C 138.343,31.8734 138.51,33.2068 139,34.5C 139.997,32.6769 141.164,31.0103 142.5,29.5 Z"/></g>
<g><path style="opacity:0.879" fill="#000000" d="M 159.5,29.5 C 164.565,29.219 169.565,29.5524 174.5,30.5C 175.48,33.0865 175.813,35.7531 175.5,38.5C 172.656,37.9421 169.822,37.2755 167,36.5C 163.419,36.4658 162.252,37.9658 163.5,41C 168.312,41.9888 172.479,44.1555 176,47.5C 178.895,54.8212 176.728,59.9879 169.5,63C 163.463,63.6971 157.463,63.5304 151.5,62.5C 151.5,59.5 151.5,56.5 151.5,53.5C 154.822,54.4919 158.155,55.4919 161.5,56.5C 165.362,56.8031 166.695,55.3031 165.5,52C 161.714,50.6074 158.048,48.9407 154.5,47C 150.034,39.3583 151.701,33.525 159.5,29.5 Z"/></g>
<g><path style="opacity:0.919" fill="#000000" d="M 190.5,29.5 C 205.981,27.315 212.981,33.9817 211.5,49.5C 204.833,49.5 198.167,49.5 191.5,49.5C 191.56,53.3956 193.56,55.5623 197.5,56C 200.904,56.2209 204.238,55.7209 207.5,54.5C 208.48,57.0865 208.813,59.7531 208.5,62.5C 202.537,63.5304 196.537,63.6971 190.5,63C 185.6,61.0982 182.433,57.5982 181,52.5C 178.847,42.4225 182.014,34.7559 190.5,29.5 Z M 195.5,36.5 C 199.98,36.6498 201.98,38.9832 201.5,43.5C 198.167,43.5 194.833,43.5 191.5,43.5C 191.571,40.3477 192.905,38.0144 195.5,36.5 Z"/></g>
<g><path style="opacity:0.96" fill="#000000" d="M 232.5,29.5 C 235.85,29.335 239.183,29.5017 242.5,30C 244.286,30.7845 245.786,31.9512 247,33.5C 248.42,43.0862 248.92,52.7529 248.5,62.5C 245.167,62.5 241.833,62.5 238.5,62.5C 238.896,54.747 238.396,47.0804 237,39.5C 232.726,36.4875 229.726,37.4875 228,42.5C 227.5,49.1583 227.334,55.825 227.5,62.5C 224.167,62.5 220.833,62.5 217.5,62.5C 217.5,51.8333 217.5,41.1667 217.5,30.5C 220.833,30.5 224.167,30.5 227.5,30.5C 227.351,31.552 227.517,32.552 228,33.5C 229.397,31.9297 230.897,30.5964 232.5,29.5 Z"/></g>
<g><path style="opacity:0.907" fill="#000000" d="M 261.5,29.5 C 266.179,29.3342 270.845,29.5008 275.5,30C 277.624,31.1217 279.457,32.6217 281,34.5C 282.445,43.7264 282.945,53.0598 282.5,62.5C 278.649,63.0291 275.149,62.3625 272,60.5C 271.097,61.7014 269.931,62.5348 268.5,63C 256.333,65.5 251.5,60.6667 254,48.5C 255.875,45.8127 258.375,43.9794 261.5,43C 265.145,42.2811 268.812,41.7811 272.5,41.5C 272.349,38.1504 270.515,36.4837 267,36.5C 263.654,36.9609 260.488,37.9609 257.5,39.5C 256.167,36.8333 256.167,34.1667 257.5,31.5C 259.026,31.0057 260.359,30.339 261.5,29.5 Z M 271.5,47.5 C 273.265,51.9722 271.765,54.9722 267,56.5C 263.925,55.5309 262.925,53.5309 264,50.5C 266.378,49.0331 268.878,48.0331 271.5,47.5 Z"/></g>
<g><path style="opacity:0.9" fill="#000000" d="M 381.5,30.5 C 385.167,30.5 388.833,30.5 392.5,30.5C 392.334,38.1739 392.5,45.8406 393,53.5C 396.294,56.3112 399.294,55.9779 402,52.5C 402.5,45.1742 402.666,37.8409 402.5,30.5C 406.167,30.5 409.833,30.5 413.5,30.5C 413.5,41.1667 413.5,51.8333 413.5,62.5C 409.833,62.5 406.167,62.5 402.5,62.5C 402.649,61.448 402.483,60.448 402,59.5C 397.909,63.3049 393.076,64.4716 387.5,63C 384.337,61.5202 382.504,59.0202 382,55.5C 381.5,47.1733 381.334,38.84 381.5,30.5 Z"/></g>
<g><path style="opacity:0.988" fill="#1754b4" d="M 65.5,34.5 C 67.7131,33.3947 69.8797,33.3947 72,34.5C 76.026,47.306 72.1927,56.4727 60.5,62C 48.8333,65.3333 37.1667,65.3333 25.5,62C 21.3961,59.8945 17.8961,57.0611 15,53.5C 14.5004,46.8417 14.3337,40.175 14.5,33.5C 22.7971,33.8068 25.9638,38.1402 24,46.5C 25,45.1667 26,45.1667 27,46.5C 27.3333,44.5 27.6667,42.5 28,40.5C 28.5613,39.9781 29.228,39.6448 30,39.5C 34.3454,41.1742 38.6788,42.8409 43,44.5C 50.8795,41.826 58.3795,38.4926 65.5,34.5 Z"/></g>
</svg>
